<svg xmlns="http://www.w3.org/2000/svg" xmlns:xlink="http://www.w3.org/1999/xlink" width="500" zoomAndPan="magnify" viewBox="0 0 375 89.999999" height="120" preserveAspectRatio="xMidYMid meet" version="1.2"><defs><clipPath id="a0717e039e"><path d="M 9.917969 14.597656 L 375 14.597656 L 375 33.976562 L 9.917969 33.976562 Z M 9.917969 14.597656 "/></clipPath><clipPath id="b9b2009f85"><path d="M 0.917969 0.597656 L 366 0.597656 L 366 19.976562 L 0.917969 19.976562 Z M 0.917969 0.597656 "/></clipPath><clipPath id="34cd35e830"><rect x="0" width="366" y="0" height="20"/></clipPath><clipPath id="e07a0866f3"><path d="M 9.917969 36.445312 L 375 36.445312 L 375 55.824219 L 9.917969 55.824219 Z M 9.917969 36.445312 "/></clipPath><clipPath id="8763b32d25"><path d="M 0.917969 0.445312 L 366 0.445312 L 366 19.824219 L 0.917969 19.824219 Z M 0.917969 0.445312 "/></clipPath><clipPath id="813ca9c63b"><rect x="0" width="366" y="0" height="20"/></clipPath><clipPath id="462bd524ac"><path d="M 9.917969 57.859375 L 375 57.859375 L 375 77.238281 L 9.917969 77.238281 Z M 9.917969 57.859375 "/></clipPath><clipPath id="8952bb54f7"><path d="M 0.917969 0.859375 L 366 0.859375 L 366 20.238281 L 0.917969 20.238281 Z M 0.917969 0.859375 "/></clipPath><clipPath id="0169536fed"><rect x="0" width="366" y="0" height="21"/></clipPath><clipPath id="2fb1467436"><rect x="0" width="366" y="0" height="88"/></clipPath></defs><g id="856a237c4b"><rect x="0" width="375" y="0" height="89.999999" style="fill:#ffffff;fill-opacity:1;stroke:none;"/><rect x="0" width="375" y="0" height="89.999999" style="fill:#ffffff;fill-opacity:1;stroke:none;"/><g clip-rule="nonzero" clip-path="url(#a0717e039e)"><g transform="matrix(1,0,0,1,9,14)"><g clip-path="url(#34cd35e830)"><g clip-rule="nonzero" clip-path="url(#b9b2009f85)"><path style=" stroke:none;fill-rule:nonzero;fill:#c7481d;fill-opacity:1;" d="M 0.917969 0.597656 L 366.011719 0.597656 L 366.011719 19.976562 L 0.917969 19.976562 Z M 0.917969 0.597656 "/></g></g></g></g><g clip-rule="nonzero" clip-path="url(#e07a0866f3)"><g transform="matrix(1,0,0,1,9,36)"><g clip-path="url(#813ca9c63b)"><g clip-rule="nonzero" clip-path="url(#8763b32d25)"><path style=" stroke:none;fill-rule:nonzero;fill:#3e9993;fill-opacity:1;" d="M 0.917969 0.445312 L 366.011719 0.445312 L 366.011719 19.824219 L 0.917969 19.824219 Z M 0.917969 0.445312 "/></g></g></g></g><g clip-rule="nonzero" clip-path="url(#462bd524ac)"><g transform="matrix(1,0,0,1,9,57)"><g clip-path="url(#0169536fed)"><g clip-rule="nonzero" clip-path="url(#8952bb54f7)"><path style=" stroke:none;fill-rule:nonzero;fill:#e6c141;fill-opacity:1;" d="M 0.917969 0.859375 L 366.011719 0.859375 L 366.011719 20.238281 L 0.917969 20.238281 Z M 0.917969 0.859375 "/></g></g></g></g><g transform="matrix(1,0,0,1,0,2)"><g clip-path="url(#2fb1467436)"><g style="fill:#ffffff;fill-opacity:1;"><g transform="translate(2.294493, 75.347465)"><path style="stroke:none" d="M 47.578125 -37.21875 C 47.578125 -33.632812 46.277344 -30.535156 43.667969 -27.929688 C 41.0625 -25.320312 37.964844 -24.019531 34.378906 -24.019531 L 31.535156 -24.019531 L 31.535156 -28.601562 L 36.121094 -28.601562 L 36.121094 4.582031 L 9.71875 4.582031 L 9.71875 -28.601562 L 14.300781 -28.601562 L 14.300781 -24.019531 L 11.460938 -24.019531 C 7.871094 -24.019531 4.773438 -25.320312 2.167969 -27.929688 C -0.4375 -30.535156 -1.742188 -33.632812 -1.742188 -37.21875 L -1.742188 -67.65625 L 24.660156 -67.65625 L 24.660156 -40.152344 L 20.078125 -40.152344 L 20.078125 -44.738281 L 25.761719 -44.738281 L 25.761719 -40.152344 L 21.175781 -40.152344 L 21.175781 -67.65625 L 47.578125 -67.65625 Z M 38.410156 -37.21875 L 38.410156 -63.070312 L 42.996094 -63.070312 L 42.996094 -58.488281 L 25.761719 -58.488281 L 25.761719 -63.070312 L 30.34375 -63.070312 L 30.34375 -35.570312 L 15.492188 -35.570312 L 15.492188 -63.070312 L 20.078125 -63.070312 L 20.078125 -58.488281 L 2.84375 -58.488281 L 2.84375 -63.070312 L 7.425781 -63.070312 L 7.425781 -37.21875 C 7.425781 -36.164062 7.832031 -35.226562 8.648438 -34.410156 C 9.464844 -33.59375 10.402344 -33.1875 11.460938 -33.1875 L 18.886719 -33.1875 L 18.886719 0 L 14.300781 0 L 14.300781 -4.582031 L 31.535156 -4.582031 L 31.535156 0 L 26.953125 0 L 26.953125 -33.1875 L 34.378906 -33.1875 C 35.433594 -33.1875 36.371094 -33.59375 37.1875 -34.410156 C 38.003906 -35.226562 38.410156 -36.164062 38.410156 -37.21875 Z M 38.410156 -37.21875 "/></g></g><g style="fill:#ffffff;fill-opacity:1;"><g transform="translate(48.128673, 75.347465)"><path style="stroke:none" d="M 21.175781 -17.234375 L 21.175781 -45.835938 L 25.761719 -45.835938 L 25.761719 -41.253906 L 20.078125 -41.253906 L 20.078125 -45.835938 L 24.660156 -45.835938 L 24.660156 -17.234375 L 20.078125 -17.234375 L 20.078125 -21.820312 L 25.761719 -21.820312 L 25.761719 -17.234375 Z M 30.34375 -12.652344 L 15.492188 -12.652344 L 15.492188 -50.421875 L 30.34375 -50.421875 Z M 47.578125 -8.617188 C 47.578125 -5.027344 46.277344 -1.933594 43.667969 0.675781 C 41.0625 3.28125 37.964844 4.582031 34.378906 4.582031 L 11.460938 4.582031 C 7.871094 4.582031 4.773438 3.28125 2.167969 0.675781 C -0.4375 -1.933594 -1.742188 -5.027344 -1.742188 -8.617188 L -1.742188 -54.453125 C -1.742188 -58.042969 -0.4375 -61.140625 2.167969 -63.746094 C 4.773438 -66.351562 7.871094 -67.65625 11.460938 -67.65625 L 34.378906 -67.65625 C 37.964844 -67.65625 41.0625 -66.351562 43.667969 -63.746094 C 46.277344 -61.140625 47.578125 -58.042969 47.578125 -54.453125 Z M 38.410156 -8.617188 L 38.410156 -54.453125 C 38.410156 -55.511719 38.003906 -56.445312 37.1875 -57.261719 C 36.371094 -58.078125 35.433594 -58.488281 34.378906 -58.488281 L 11.460938 -58.488281 C 10.402344 -58.488281 9.464844 -58.078125 8.648438 -57.261719 C 7.832031 -56.445312 7.425781 -55.511719 7.425781 -54.453125 L 7.425781 -8.617188 C 7.425781 -7.5625 7.832031 -6.625 8.648438 -5.808594 C 9.464844 -4.992188 10.402344 -4.582031 11.460938 -4.582031 L 34.378906 -4.582031 C 35.433594 -4.582031 36.371094 -4.992188 37.1875 -5.808594 C 38.003906 -6.625 38.410156 -7.5625 38.410156 -8.617188 Z M 38.410156 -8.617188 "/></g></g><g style="fill:#ffffff;fill-opacity:1;"><g transform="translate(93.962853, 75.347465)"><path style="stroke:none" d="M 47.578125 -8.617188 C 47.578125 -5.027344 46.277344 -1.933594 43.667969 0.675781 C 41.0625 3.28125 37.964844 4.582031 34.378906 4.582031 L 11.460938 4.582031 C 7.871094 4.582031 4.773438 3.28125 2.167969 0.675781 C -0.4375 -1.933594 -1.742188 -5.027344 -1.742188 -8.617188 L -1.742188 -67.65625 L 24.660156 -67.65625 L 24.660156 -17.234375 L 20.078125 -17.234375 L 20.078125 -21.820312 L 25.761719 -21.820312 L 25.761719 -17.234375 L 21.175781 -17.234375 L 21.175781 -67.65625 L 47.578125 -67.65625 Z M 38.410156 -8.617188 L 38.410156 -63.070312 L 42.996094 -63.070312 L 42.996094 -58.488281 L 25.761719 -58.488281 L 25.761719 -63.070312 L 30.34375 -63.070312 L 30.34375 -12.652344 L 15.492188 -12.652344 L 15.492188 -63.070312 L 20.078125 -63.070312 L 20.078125 -58.488281 L 2.84375 -58.488281 L 2.84375 -63.070312 L 7.425781 -63.070312 L 7.425781 -8.617188 C 7.425781 -7.5625 7.832031 -6.625 8.648438 -5.808594 C 9.464844 -4.992188 10.402344 -4.582031 11.460938 -4.582031 L 34.378906 -4.582031 C 35.433594 -4.582031 36.371094 -4.992188 37.1875 -5.808594 C 38.003906 -6.625 38.410156 -7.5625 38.410156 -8.617188 Z M 38.410156 -8.617188 "/></g></g><g style="fill:#ffffff;fill-opacity:1;"><g transform="translate(139.797033, 75.347465)"><path style="stroke:none" d="M 21.175781 -34.378906 L 21.175781 -45.835938 L 25.761719 -45.835938 L 25.761719 -41.253906 L 20.078125 -41.253906 L 20.078125 -45.835938 L 24.660156 -45.835938 L 24.660156 -34.378906 L 20.078125 -34.378906 L 20.078125 -38.960938 L 25.761719 -38.960938 L 25.761719 -34.378906 Z M 30.34375 -29.792969 L 15.492188 -29.792969 L 15.492188 -50.421875 L 30.34375 -50.421875 Z M 42.996094 4.582031 L 21.175781 4.582031 L 21.175781 -17.234375 L 25.761719 -17.234375 L 25.761719 -12.652344 L 20.078125 -12.652344 L 20.078125 -17.234375 L 24.660156 -17.234375 L 24.660156 4.582031 L -1.742188 4.582031 L -1.742188 -67.65625 L 34.378906 -67.65625 C 37.964844 -67.65625 41.0625 -66.351562 43.667969 -63.746094 C 46.277344 -61.140625 47.578125 -58.042969 47.578125 -54.453125 L 47.578125 -34.378906 C 47.578125 -30.789062 46.277344 -27.691406 43.667969 -25.085938 C 41.0625 -22.480469 37.964844 -21.175781 34.378906 -21.175781 L 34.378906 -30.34375 C 37.949219 -30.34375 41.039062 -29.066406 43.640625 -26.507812 C 46.265625 -23.929688 47.578125 -20.839844 47.578125 -17.234375 L 47.578125 4.582031 Z M 42.996094 -4.582031 L 42.996094 0 L 38.410156 0 L 38.410156 -17.234375 C 38.410156 -18.273438 38.011719 -19.1875 37.214844 -19.96875 C 36.398438 -20.773438 35.449219 -21.175781 34.378906 -21.175781 L 34.378906 -30.34375 C 35.433594 -30.34375 36.371094 -30.753906 37.1875 -31.566406 C 38.003906 -32.382812 38.410156 -33.320312 38.410156 -34.378906 L 38.410156 -54.453125 C 38.410156 -55.511719 38.003906 -56.445312 37.1875 -57.261719 C 36.371094 -58.078125 35.433594 -58.488281 34.378906 -58.488281 L 2.84375 -58.488281 L 2.84375 -63.070312 L 7.425781 -63.070312 L 7.425781 0 L 2.84375 0 L 2.84375 -4.582031 L 20.078125 -4.582031 L 20.078125 0 L 15.492188 0 L 15.492188 -21.820312 L 30.34375 -21.820312 L 30.34375 0 L 25.761719 0 L 25.761719 -4.582031 Z M 42.996094 -4.582031 "/></g></g><g style="fill:#ffffff;fill-opacity:1;"><g transform="translate(185.631213, 75.347465)"><path style="stroke:none" d="M 37.21875 4.582031 L -1.742188 4.582031 L -1.742188 -67.65625 L 24.660156 -67.65625 L 24.660156 -17.234375 L 20.078125 -17.234375 L 20.078125 -21.820312 L 41.804688 -21.820312 L 41.804688 4.582031 Z M 37.21875 -4.582031 L 37.21875 0 L 32.636719 0 L 32.636719 -17.234375 L 37.21875 -17.234375 L 37.21875 -12.652344 L 15.492188 -12.652344 L 15.492188 -63.070312 L 20.078125 -63.070312 L 20.078125 -58.488281 L 2.84375 -58.488281 L 2.84375 -63.070312 L 7.425781 -63.070312 L 7.425781 0 L 2.84375 0 L 2.84375 -4.582031 Z M 37.21875 -4.582031 "/></g></g><g style="fill:#ffffff;fill-opacity:1;"><g transform="translate(225.690274, 75.347465)"><path style="stroke:none" d="M 21.175781 -17.234375 L 21.175781 -45.835938 L 25.761719 -45.835938 L 25.761719 -41.253906 L 20.078125 -41.253906 L 20.078125 -45.835938 L 24.660156 -45.835938 L 24.660156 -17.234375 L 20.078125 -17.234375 L 20.078125 -21.820312 L 25.761719 -21.820312 L 25.761719 -17.234375 Z M 30.34375 -12.652344 L 15.492188 -12.652344 L 15.492188 -50.421875 L 30.34375 -50.421875 Z M 47.578125 -8.617188 C 47.578125 -5.027344 46.277344 -1.933594 43.667969 0.675781 C 41.0625 3.28125 37.964844 4.582031 34.378906 4.582031 L 11.460938 4.582031 C 7.871094 4.582031 4.773438 3.28125 2.167969 0.675781 C -0.4375 -1.933594 -1.742188 -5.027344 -1.742188 -8.617188 L -1.742188 -54.453125 C -1.742188 -58.042969 -0.4375 -61.140625 2.167969 -63.746094 C 4.773438 -66.351562 7.871094 -67.65625 11.460938 -67.65625 L 34.378906 -67.65625 C 37.964844 -67.65625 41.0625 -66.351562 43.667969 -63.746094 C 46.277344 -61.140625 47.578125 -58.042969 47.578125 -54.453125 Z M 38.410156 -8.617188 L 38.410156 -54.453125 C 38.410156 -55.511719 38.003906 -56.445312 37.1875 -57.261719 C 36.371094 -58.078125 35.433594 -58.488281 34.378906 -58.488281 L 11.460938 -58.488281 C 10.402344 -58.488281 9.464844 -58.078125 8.648438 -57.261719 C 7.832031 -56.445312 7.425781 -55.511719 7.425781 -54.453125 L 7.425781 -8.617188 C 7.425781 -7.5625 7.832031 -6.625 8.648438 -5.808594 C 9.464844 -4.992188 10.402344 -4.582031 11.460938 -4.582031 L 34.378906 -4.582031 C 35.433594 -4.582031 36.371094 -4.992188 37.1875 -5.808594 C 38.003906 -6.625 38.410156 -7.5625 38.410156 -8.617188 Z M 38.410156 -8.617188 "/></g></g><g style="fill:#ffffff;fill-opacity:1;"><g transform="translate(271.524466, 75.347465)"><path style="stroke:none" d="M 47.578125 -8.617188 C 47.578125 -5.027344 46.277344 -1.933594 43.667969 0.675781 C 41.0625 3.28125 37.964844 4.582031 34.378906 4.582031 L 11.460938 4.582031 C 7.871094 4.582031 4.773438 3.28125 2.167969 0.675781 C -0.4375 -1.933594 -1.742188 -5.027344 -1.742188 -8.617188 L -1.742188 -54.453125 C -1.742188 -58.042969 -0.4375 -61.140625 2.167969 -63.746094 C 4.773438 -66.351562 7.871094 -67.65625 11.460938 -67.65625 L 44.738281 -67.65625 L 44.738281 -41.253906 L 20.078125 -41.253906 L 20.078125 -45.835938 L 24.660156 -45.835938 L 24.660156 -17.234375 L 20.078125 -17.234375 L 20.078125 -21.820312 L 25.761719 -21.820312 L 25.761719 -17.234375 L 21.175781 -17.234375 L 21.175781 -38.960938 L 47.578125 -38.960938 Z M 38.410156 -8.617188 L 38.410156 -34.378906 L 42.996094 -34.378906 L 42.996094 -29.792969 L 25.761719 -29.792969 L 25.761719 -34.378906 L 30.34375 -34.378906 L 30.34375 -12.652344 L 15.492188 -12.652344 L 15.492188 -50.421875 L 40.152344 -50.421875 L 40.152344 -45.835938 L 35.570312 -45.835938 L 35.570312 -63.070312 L 40.152344 -63.070312 L 40.152344 -58.488281 L 11.460938 -58.488281 C 10.402344 -58.488281 9.464844 -58.078125 8.648438 -57.261719 C 7.832031 -56.445312 7.425781 -55.511719 7.425781 -54.453125 L 7.425781 -8.617188 C 7.425781 -7.5625 7.832031 -6.625 8.648438 -5.808594 C 9.464844 -4.992188 10.402344 -4.582031 11.460938 -4.582031 L 34.378906 -4.582031 C 35.433594 -4.582031 36.371094 -4.992188 37.1875 -5.808594 C 38.003906 -6.625 38.410156 -7.5625 38.410156 -8.617188 Z M 38.410156 -8.617188 "/></g></g><g style="fill:#ffffff;fill-opacity:1;"><g transform="translate(317.358658, 75.347465)"><path style="stroke:none" d="M 21.175781 -17.234375 L 21.175781 -45.835938 L 25.761719 -45.835938 L 25.761719 -41.253906 L 20.078125 -41.253906 L 20.078125 -45.835938 L 24.660156 -45.835938 L 24.660156 -17.234375 L 20.078125 -17.234375 L 20.078125 -21.820312 L 25.761719 -21.820312 L 25.761719 -17.234375 Z M 30.34375 -12.652344 L 15.492188 -12.652344 L 15.492188 -50.421875 L 30.34375 -50.421875 Z M 47.578125 -8.617188 C 47.578125 -5.027344 46.277344 -1.933594 43.667969 0.675781 C 41.0625 3.28125 37.964844 4.582031 34.378906 4.582031 L 11.460938 4.582031 C 7.871094 4.582031 4.773438 3.28125 2.167969 0.675781 C -0.4375 -1.933594 -1.742188 -5.027344 -1.742188 -8.617188 L -1.742188 -54.453125 C -1.742188 -58.042969 -0.4375 -61.140625 2.167969 -63.746094 C 4.773438 -66.351562 7.871094 -67.65625 11.460938 -67.65625 L 34.378906 -67.65625 C 37.964844 -67.65625 41.0625 -66.351562 43.667969 -63.746094 C 46.277344 -61.140625 47.578125 -58.042969 47.578125 -54.453125 Z M 38.410156 -8.617188 L 38.410156 -54.453125 C 38.410156 -55.511719 38.003906 -56.445312 37.1875 -57.261719 C 36.371094 -58.078125 35.433594 -58.488281 34.378906 -58.488281 L 11.460938 -58.488281 C 10.402344 -58.488281 9.464844 -58.078125 8.648438 -57.261719 C 7.832031 -56.445312 7.425781 -55.511719 7.425781 -54.453125 L 7.425781 -8.617188 C 7.425781 -7.5625 7.832031 -6.625 8.648438 -5.808594 C 9.464844 -4.992188 10.402344 -4.582031 11.460938 -4.582031 L 34.378906 -4.582031 C 35.433594 -4.582031 36.371094 -4.992188 37.1875 -5.808594 C 38.003906 -6.625 38.410156 -7.5625 38.410156 -8.617188 Z M 38.410156 -8.617188 "/></g></g><g style="fill:#000000;fill-opacity:1;"><g transform="translate(2.294493, 75.347465)"><path style="stroke:none" d="M 43 -37.21875 C 43 -34.894531 42.140625 -32.878906 40.421875 -31.171875 C 38.710938 -29.460938 36.695312 -28.609375 34.375 -28.609375 L 31.53125 -28.609375 L 31.53125 0 L 14.296875 0 L 14.296875 -28.609375 L 11.453125 -28.609375 C 9.128906 -28.609375 7.113281 -29.460938 5.40625 -31.171875 C 3.695312 -32.878906 2.84375 -34.894531 2.84375 -37.21875 L 2.84375 -63.0625 L 20.078125 -63.0625 L 20.078125 -40.15625 L 25.765625 -40.15625 L 25.765625 -63.0625 L 43 -63.0625 Z M 43 -37.21875 "/></g></g><g style="fill:#000000;fill-opacity:1;"><g transform="translate(48.128673, 75.347465)"><path style="stroke:none" d="M 25.765625 -17.234375 L 25.765625 -45.84375 L 20.078125 -45.84375 L 20.078125 -17.234375 Z M 43 -8.609375 C 43 -6.296875 42.140625 -4.28125 40.421875 -2.5625 C 38.710938 -0.851562 36.695312 0 34.375 0 L 11.453125 0 C 9.128906 0 7.113281 -0.851562 5.40625 -2.5625 C 3.695312 -4.28125 2.84375 -6.296875 2.84375 -8.609375 L 2.84375 -54.453125 C 2.84375 -56.773438 3.695312 -58.789062 5.40625 -60.5 C 7.113281 -62.207031 9.128906 -63.0625 11.453125 -63.0625 L 34.375 -63.0625 C 36.695312 -63.0625 38.710938 -62.207031 40.421875 -60.5 C 42.140625 -58.789062 43 -56.773438 43 -54.453125 Z M 43 -8.609375 "/></g></g><g style="fill:#000000;fill-opacity:1;"><g transform="translate(93.962853, 75.347465)"><path style="stroke:none" d="M 43 -8.609375 C 43 -6.296875 42.140625 -4.28125 40.421875 -2.5625 C 38.710938 -0.851562 36.695312 0 34.375 0 L 11.453125 0 C 9.128906 0 7.113281 -0.851562 5.40625 -2.5625 C 3.695312 -4.28125 2.84375 -6.296875 2.84375 -8.609375 L 2.84375 -63.0625 L 20.078125 -63.0625 L 20.078125 -17.234375 L 25.765625 -17.234375 L 25.765625 -63.0625 L 43 -63.0625 Z M 43 -8.609375 "/></g></g><g style="fill:#000000;fill-opacity:1;"><g transform="translate(139.797033, 75.347465)"><path style="stroke:none" d="M 25.765625 -34.375 L 25.765625 -45.84375 L 20.078125 -45.84375 L 20.078125 -34.375 Z M 43 0 L 25.765625 0 L 25.765625 -17.234375 L 20.078125 -17.234375 L 20.078125 0 L 2.84375 0 L 2.84375 -63.0625 L 34.375 -63.0625 C 36.695312 -63.0625 38.710938 -62.207031 40.421875 -60.5 C 42.140625 -58.789062 43 -56.773438 43 -54.453125 L 43 -34.375 C 43 -32.050781 42.140625 -30.035156 40.421875 -28.328125 C 38.710938 -26.617188 36.695312 -25.765625 34.375 -25.765625 C 36.695312 -25.765625 38.710938 -24.921875 40.421875 -23.234375 C 42.140625 -21.554688 43 -19.554688 43 -17.234375 Z M 43 0 "/></g></g><g style="fill:#000000;fill-opacity:1;"><g transform="translate(185.631213, 75.347465)"><path style="stroke:none" d="M 37.21875 0 L 2.84375 0 L 2.84375 -63.0625 L 20.078125 -63.0625 L 20.078125 -17.234375 L 37.21875 -17.234375 Z M 37.21875 0 "/></g></g><g style="fill:#000000;fill-opacity:1;"><g transform="translate(225.690274, 75.347465)"><path style="stroke:none" d="M 25.765625 -17.234375 L 25.765625 -45.84375 L 20.078125 -45.84375 L 20.078125 -17.234375 Z M 43 -8.609375 C 43 -6.296875 42.140625 -4.28125 40.421875 -2.5625 C 38.710938 -0.851562 36.695312 0 34.375 0 L 11.453125 0 C 9.128906 0 7.113281 -0.851562 5.40625 -2.5625 C 3.695312 -4.28125 2.84375 -6.296875 2.84375 -8.609375 L 2.84375 -54.453125 C 2.84375 -56.773438 3.695312 -58.789062 5.40625 -60.5 C 7.113281 -62.207031 9.128906 -63.0625 11.453125 -63.0625 L 34.375 -63.0625 C 36.695312 -63.0625 38.710938 -62.207031 40.421875 -60.5 C 42.140625 -58.789062 43 -56.773438 43 -54.453125 Z M 43 -8.609375 "/></g></g><g style="fill:#000000;fill-opacity:1;"><g transform="translate(271.524466, 75.347465)"><path style="stroke:none" d="M 43 -8.609375 C 43 -6.296875 42.140625 -4.28125 40.421875 -2.5625 C 38.710938 -0.851562 36.695312 0 34.375 0 L 11.453125 0 C 9.128906 0 7.113281 -0.851562 5.40625 -2.5625 C 3.695312 -4.28125 2.84375 -6.296875 2.84375 -8.609375 L 2.84375 -54.453125 C 2.84375 -56.773438 3.695312 -58.789062 5.40625 -60.5 C 7.113281 -62.207031 9.128906 -63.0625 11.453125 -63.0625 L 40.15625 -63.0625 L 40.15625 -45.84375 L 20.078125 -45.84375 L 20.078125 -17.234375 L 25.765625 -17.234375 L 25.765625 -34.375 L 43 -34.375 Z M 43 -8.609375 "/></g></g><g style="fill:#000000;fill-opacity:1;"><g transform="translate(317.358658, 75.347465)"><path style="stroke:none" d="M 25.765625 -17.234375 L 25.765625 -45.84375 L 20.078125 -45.84375 L 20.078125 -17.234375 Z M 43 -8.609375 C 43 -6.296875 42.140625 -4.28125 40.421875 -2.5625 C 38.710938 -0.851562 36.695312 0 34.375 0 L 11.453125 0 C 9.128906 0 7.113281 -0.851562 5.40625 -2.5625 C 3.695312 -4.28125 2.84375 -6.296875 2.84375 -8.609375 L 2.84375 -54.453125 C 2.84375 -56.773438 3.695312 -58.789062 5.40625 -60.5 C 7.113281 -62.207031 9.128906 -63.0625 11.453125 -63.0625 L 34.375 -63.0625 C 36.695312 -63.0625 38.710938 -62.207031 40.421875 -60.5 C 42.140625 -58.789062 43 -56.773438 43 -54.453125 Z M 43 -8.609375 "/></g></g></g></g></g></svg>