<svg xmlns="http://www.w3.org/2000/svg" xmlns:xlink="http://www.w3.org/1999/xlink" width="500" zoomAndPan="magnify" viewBox="0 0 375 374.999991" height="500" preserveAspectRatio="xMidYMid meet" version="1.2"><defs><clipPath id="4a2c48aabf"><path d="M 57.8125 36.671875 L 363.8125 36.671875 L 363.8125 130.546875 L 57.8125 130.546875 Z M 57.8125 36.671875 "/></clipPath><clipPath id="07469b9520"><path d="M 57.8125 142.496094 L 363.8125 142.496094 L 363.8125 236.371094 L 57.8125 236.371094 Z M 57.8125 142.496094 "/></clipPath><clipPath id="eebd9b66c1"><path d="M 57.8125 246.234375 L 363.8125 246.234375 L 363.8125 340.109375 L 57.8125 340.109375 Z M 57.8125 246.234375 "/></clipPath></defs><g id="6788ef6539"><g clip-rule="nonzero" clip-path="url(#4a2c48aabf)"><path style=" stroke:none;fill-rule:nonzero;fill:#c7481d;fill-opacity:1;" d="M 57.8125 36.671875 L 363.640625 36.671875 L 363.640625 130.546875 L 57.8125 130.546875 Z M 57.8125 36.671875 "/></g><g clip-rule="nonzero" clip-path="url(#07469b9520)"><path style=" stroke:none;fill-rule:nonzero;fill:#3e9993;fill-opacity:1;" d="M 57.8125 142.496094 L 363.640625 142.496094 L 363.640625 236.371094 L 57.8125 236.371094 Z M 57.8125 142.496094 "/></g><g clip-rule="nonzero" clip-path="url(#eebd9b66c1)"><path style=" stroke:none;fill-rule:nonzero;fill:#e6c141;fill-opacity:1;" d="M 57.8125 246.234375 L 363.640625 246.234375 L 363.640625 340.109375 L 57.8125 340.109375 Z M 57.8125 246.234375 "/></g><g style="fill:#ffffff;fill-opacity:1;"><g transform="translate(5.729026, 340.57388)"><path style="stroke:none" d="M 312.71875 21.746094 L 209.203125 21.746094 L 209.203125 -103.515625 L 230.953125 -103.515625 L 250.722656 -94.460938 L 197.503906 21.746094 L 129.1875 21.746094 L 75.511719 -94.390625 L 95.25 -103.515625 L 117 -103.515625 L 117 21.746094 L -8.265625 21.746094 L -8.265625 -320.984375 L 109.183594 -320.984375 L 182.859375 -160.882812 L 163.101562 -151.792969 L 143.34375 -160.882812 L 217.019531 -320.984375 L 334.46875 -320.984375 L 334.46875 21.746094 Z M 312.71875 -21.746094 L 312.71875 0 L 290.972656 0 L 290.972656 -299.238281 L 312.71875 -299.238281 L 312.71875 -277.488281 L 230.953125 -277.488281 L 230.953125 -299.238281 L 250.707031 -290.144531 L 163.101562 -99.769531 L 75.496094 -290.144531 L 95.25 -299.238281 L 95.25 -277.488281 L 13.484375 -277.488281 L 13.484375 -299.238281 L 35.230469 -299.238281 L 35.230469 0 L 13.484375 0 L 13.484375 -21.746094 L 95.25 -21.746094 L 95.25 0 L 73.503906 0 L 73.503906 -103.515625 L 114.992188 -112.640625 L 162.835938 -9.125 L 143.09375 0 L 143.09375 -21.746094 L 183.542969 -21.746094 L 183.542969 0 L 163.769531 -9.054688 L 211.179688 -112.570312 L 252.699219 -103.515625 L 252.699219 0 L 230.953125 0 L 230.953125 -21.746094 Z M 312.71875 -21.746094 "/></g></g><g style="fill:#000000;fill-opacity:1;"><g transform="translate(5.729026, 340.57388)"><path style="stroke:none" d="M 312.71875 0 L 230.953125 0 L 230.953125 -103.515625 L 183.546875 0 L 143.09375 0 L 95.25 -103.515625 L 95.25 0 L 13.484375 0 L 13.484375 -299.234375 L 95.25 -299.234375 L 163.09375 -151.796875 L 230.953125 -299.234375 L 312.71875 -299.234375 Z M 312.71875 0 "/></g></g></g></svg>