<svg xmlns="http://www.w3.org/2000/svg" xmlns:xlink="http://www.w3.org/1999/xlink" width="500" zoomAndPan="magnify" viewBox="0 0 375 89.999999" height="120" preserveAspectRatio="xMidYMid meet" version="1.2"><defs><clipPath id="e45fe42c00"><path d="M 9.917969 14.597656 L 375 14.597656 L 375 33.976562 L 9.917969 33.976562 Z M 9.917969 14.597656 "/></clipPath><clipPath id="56df124ba8"><path d="M 9.917969 36.445312 L 375 36.445312 L 375 55.824219 L 9.917969 55.824219 Z M 9.917969 36.445312 "/></clipPath><clipPath id="4f66f6c503"><path d="M 9.917969 57.859375 L 375 57.859375 L 375 77.238281 L 9.917969 77.238281 Z M 9.917969 57.859375 "/></clipPath></defs><g id="7e01335152"><g clip-rule="nonzero" clip-path="url(#e45fe42c00)"><path style=" stroke:none;fill-rule:nonzero;fill:#c7481d;fill-opacity:1;" d="M 9.917969 14.597656 L 375.011719 14.597656 L 375.011719 33.976562 L 9.917969 33.976562 Z M 9.917969 14.597656 "/></g><g clip-rule="nonzero" clip-path="url(#56df124ba8)"><path style=" stroke:none;fill-rule:nonzero;fill:#3e9993;fill-opacity:1;" d="M 9.917969 36.445312 L 375.011719 36.445312 L 375.011719 55.824219 L 9.917969 55.824219 Z M 9.917969 36.445312 "/></g><g clip-rule="nonzero" clip-path="url(#4f66f6c503)"><path style=" stroke:none;fill-rule:nonzero;fill:#e6c141;fill-opacity:1;" d="M 9.917969 57.859375 L 375.011719 57.859375 L 375.011719 77.238281 L 9.917969 77.238281 Z M 9.917969 57.859375 "/></g><g style="fill:#ffffff;fill-opacity:1;"><g transform="translate(-1.923045, 77.347465)"><path style="stroke:none" d="M 65.914062 4.582031 L 44.09375 4.582031 L 44.09375 -21.816406 L 48.679688 -21.816406 L 52.847656 -19.910156 L 41.628906 4.582031 L 27.230469 4.582031 L 15.914062 -19.894531 L 20.078125 -21.816406 L 24.660156 -21.816406 L 24.660156 4.582031 L -1.742188 4.582031 L -1.742188 -67.65625 L 23.011719 -67.65625 L 38.542969 -33.910156 L 34.378906 -31.992188 L 30.214844 -33.910156 L 45.742188 -67.65625 L 70.496094 -67.65625 L 70.496094 4.582031 Z M 65.914062 -4.582031 L 65.914062 0 L 61.328125 0 L 61.328125 -63.070312 L 65.914062 -63.070312 L 65.914062 -58.488281 L 48.679688 -58.488281 L 48.679688 -63.070312 L 52.84375 -61.15625 L 34.378906 -21.027344 L 15.914062 -61.15625 L 20.078125 -63.070312 L 20.078125 -58.488281 L 2.84375 -58.488281 L 2.84375 -63.070312 L 7.425781 -63.070312 L 7.425781 0 L 2.84375 0 L 2.84375 -4.582031 L 20.078125 -4.582031 L 20.078125 0 L 15.492188 0 L 15.492188 -21.816406 L 24.238281 -23.742188 L 34.320312 -1.921875 L 30.160156 0 L 30.160156 -4.582031 L 38.6875 -4.582031 L 38.6875 0 L 34.519531 -1.910156 L 44.511719 -23.726562 L 53.261719 -21.816406 L 53.261719 0 L 48.679688 0 L 48.679688 -4.582031 Z M 65.914062 -4.582031 "/></g></g><g style="fill:#ffffff;fill-opacity:1;"><g transform="translate(66.828219, 77.347465)"><path style="stroke:none" d="M 21.175781 -11.460938 L 21.175781 -34.378906 L 25.761719 -34.378906 L 25.761719 -29.792969 L 20.078125 -29.792969 L 20.078125 -34.378906 L 24.660156 -34.378906 L 24.660156 -11.460938 L 20.078125 -11.460938 L 20.078125 -16.042969 L 25.761719 -16.042969 L 25.761719 -11.460938 Z M 30.34375 -6.875 L 15.492188 -6.875 L 15.492188 -38.960938 L 30.34375 -38.960938 Z M 47.578125 -37.21875 L 47.578125 -8.617188 C 47.578125 -5.027344 46.277344 -1.933594 43.667969 0.675781 C 41.0625 3.28125 37.964844 4.582031 34.378906 4.582031 L 11.460938 4.582031 C 7.871094 4.582031 4.773438 3.28125 2.167969 0.675781 C -0.4375 -1.933594 -1.742188 -5.027344 -1.742188 -8.617188 L -1.742188 -37.21875 C -1.742188 -40.808594 -0.4375 -43.90625 2.167969 -46.511719 C 4.773438 -49.117188 7.871094 -50.421875 11.460938 -50.421875 L 34.378906 -50.421875 C 37.964844 -50.421875 41.0625 -49.117188 43.667969 -46.511719 C 46.277344 -43.90625 47.578125 -40.808594 47.578125 -37.21875 Z M 38.410156 -37.21875 C 38.410156 -38.277344 38.003906 -39.210938 37.1875 -40.027344 C 36.371094 -40.84375 35.433594 -41.253906 34.378906 -41.253906 L 11.460938 -41.253906 C 10.402344 -41.253906 9.464844 -40.84375 8.648438 -40.027344 C 7.832031 -39.210938 7.425781 -38.277344 7.425781 -37.21875 L 7.425781 -8.617188 C 7.425781 -7.5625 7.832031 -6.625 8.648438 -5.808594 C 9.464844 -4.992188 10.402344 -4.582031 11.460938 -4.582031 L 34.378906 -4.582031 C 35.433594 -4.582031 36.371094 -4.992188 37.1875 -5.808594 C 38.003906 -6.625 38.410156 -7.5625 38.410156 -8.617188 Z M 38.410156 -37.21875 "/></g></g><g style="fill:#ffffff;fill-opacity:1;"><g transform="translate(112.662399, 77.347465)"><path style="stroke:none" d="M 47.578125 -37.21875 L 47.578125 4.582031 L 21.175781 4.582031 L 21.175781 -34.378906 L 25.761719 -34.378906 L 25.761719 -29.792969 L 20.078125 -29.792969 L 20.078125 -34.378906 L 24.660156 -34.378906 L 24.660156 4.582031 L -1.742188 4.582031 L -1.742188 -50.421875 L 34.378906 -50.421875 C 37.964844 -50.421875 41.0625 -49.117188 43.667969 -46.511719 C 46.277344 -43.90625 47.578125 -40.808594 47.578125 -37.21875 Z M 38.410156 -37.21875 C 38.410156 -38.277344 38.003906 -39.210938 37.1875 -40.027344 C 36.371094 -40.84375 35.433594 -41.253906 34.378906 -41.253906 L 2.84375 -41.253906 L 2.84375 -45.835938 L 7.425781 -45.835938 L 7.425781 0 L 2.84375 0 L 2.84375 -4.582031 L 20.078125 -4.582031 L 20.078125 0 L 15.492188 0 L 15.492188 -38.960938 L 30.34375 -38.960938 L 30.34375 0 L 25.761719 0 L 25.761719 -4.582031 L 42.996094 -4.582031 L 42.996094 0 L 38.410156 0 Z M 38.410156 -37.21875 "/></g></g><g style="fill:#ffffff;fill-opacity:1;"><g transform="translate(158.496579, 77.347465)"><path style="stroke:none" d="M 41.804688 -8.617188 C 41.804688 -5.027344 40.5 -1.933594 37.894531 0.675781 C 35.289062 3.28125 32.191406 4.582031 28.601562 4.582031 L -1.742188 4.582031 L -1.742188 -16.042969 L 20.078125 -16.042969 L 20.078125 -11.460938 L 15.492188 -11.460938 L 15.492188 -17.234375 L 20.078125 -17.234375 L 20.078125 -12.652344 L 11.460938 -12.652344 C 7.886719 -12.652344 4.800781 -13.929688 2.195312 -16.484375 C -0.429688 -19.0625 -1.742188 -22.15625 -1.742188 -25.761719 L -1.742188 -37.21875 C -1.742188 -40.808594 -0.4375 -43.90625 2.167969 -46.511719 C 4.773438 -49.117188 7.871094 -50.421875 11.460938 -50.421875 L 39.511719 -50.421875 L 39.511719 -29.792969 L 20.078125 -29.792969 L 20.078125 -34.378906 L 24.660156 -34.378906 L 24.660156 -28.601562 L 20.078125 -28.601562 L 20.078125 -33.1875 L 28.601562 -33.1875 C 32.175781 -33.1875 35.261719 -31.90625 37.863281 -29.351562 C 40.492188 -26.773438 41.804688 -23.679688 41.804688 -20.078125 Z M 32.636719 -8.617188 L 32.636719 -20.078125 C 32.636719 -21.117188 32.238281 -22.027344 31.441406 -22.8125 C 30.621094 -23.617188 29.675781 -24.019531 28.601562 -24.019531 L 15.492188 -24.019531 L 15.492188 -38.960938 L 34.925781 -38.960938 L 34.925781 -34.378906 L 30.34375 -34.378906 L 30.34375 -45.835938 L 34.925781 -45.835938 L 34.925781 -41.253906 L 11.460938 -41.253906 C 10.402344 -41.253906 9.464844 -40.84375 8.648438 -40.027344 C 7.832031 -39.210938 7.425781 -38.277344 7.425781 -37.21875 L 7.425781 -25.761719 C 7.425781 -24.71875 7.824219 -23.808594 8.621094 -23.027344 C 9.441406 -22.222656 10.386719 -21.820312 11.460938 -21.820312 L 24.660156 -21.820312 L 24.660156 -6.875 L 2.84375 -6.875 L 2.84375 -11.460938 L 7.425781 -11.460938 L 7.425781 0 L 2.84375 0 L 2.84375 -4.582031 L 28.601562 -4.582031 C 29.660156 -4.582031 30.59375 -4.992188 31.410156 -5.808594 C 32.226562 -6.625 32.636719 -7.5625 32.636719 -8.617188 Z M 32.636719 -8.617188 "/></g></g><g style="fill:#ffffff;fill-opacity:1;"><g transform="translate(198.555639, 77.347465)"><path style="stroke:none" d="M 37.21875 4.582031 L 17.234375 4.582031 C 13.648438 4.582031 10.550781 3.28125 7.941406 0.675781 C 5.335938 -1.933594 4.035156 -5.027344 4.035156 -8.617188 L 4.035156 -34.378906 L 8.617188 -34.378906 L 8.617188 -29.792969 L -1.742188 -29.792969 L -1.742188 -50.421875 L 8.617188 -50.421875 L 8.617188 -45.835938 L 4.035156 -45.835938 L 4.035156 -67.65625 L 30.34375 -67.65625 L 30.34375 -45.835938 L 25.761719 -45.835938 L 25.761719 -50.421875 L 41.804688 -50.421875 L 41.804688 -29.792969 L 25.761719 -29.792969 L 25.761719 -34.378906 L 30.34375 -34.378906 L 30.34375 -11.460938 L 25.761719 -11.460938 L 25.761719 -16.042969 L 41.804688 -16.042969 L 41.804688 4.582031 Z M 37.21875 -4.582031 L 37.21875 0 L 32.636719 0 L 32.636719 -11.460938 L 37.21875 -11.460938 L 37.21875 -6.875 L 21.175781 -6.875 L 21.175781 -38.960938 L 37.21875 -38.960938 L 37.21875 -34.378906 L 32.636719 -34.378906 L 32.636719 -45.835938 L 37.21875 -45.835938 L 37.21875 -41.253906 L 21.175781 -41.253906 L 21.175781 -63.070312 L 25.761719 -63.070312 L 25.761719 -58.488281 L 8.617188 -58.488281 L 8.617188 -63.070312 L 13.199219 -63.070312 L 13.199219 -41.253906 L 2.84375 -41.253906 L 2.84375 -45.835938 L 7.425781 -45.835938 L 7.425781 -34.378906 L 2.84375 -34.378906 L 2.84375 -38.960938 L 13.199219 -38.960938 L 13.199219 -8.617188 C 13.199219 -7.5625 13.609375 -6.625 14.425781 -5.808594 C 15.242188 -4.992188 16.179688 -4.582031 17.234375 -4.582031 Z M 37.21875 -4.582031 "/></g></g><g style="fill:#ffffff;fill-opacity:1;"><g transform="translate(238.614723, 77.347465)"><path style="stroke:none" d="M 21.175781 -28.601562 L 21.175781 -34.378906 L 25.761719 -34.378906 L 25.761719 -29.792969 L 20.078125 -29.792969 L 20.078125 -34.378906 L 24.660156 -34.378906 L 24.660156 -28.601562 L 20.078125 -28.601562 L 20.078125 -33.1875 L 25.761719 -33.1875 L 25.761719 -28.601562 Z M 30.34375 -24.019531 L 15.492188 -24.019531 L 15.492188 -38.960938 L 30.34375 -38.960938 Z M 47.578125 -25.761719 C 47.578125 -22.15625 46.265625 -19.0625 43.640625 -16.484375 C 41.039062 -13.929688 37.949219 -12.652344 34.378906 -12.652344 L 20.078125 -12.652344 L 20.078125 -17.234375 L 24.660156 -17.234375 L 24.660156 -11.460938 L 20.078125 -11.460938 L 20.078125 -16.042969 L 44.738281 -16.042969 L 44.738281 4.582031 L 11.460938 4.582031 C 7.871094 4.582031 4.773438 3.28125 2.167969 0.675781 C -0.4375 -1.933594 -1.742188 -5.027344 -1.742188 -8.617188 L -1.742188 -37.21875 C -1.742188 -40.808594 -0.4375 -43.90625 2.167969 -46.511719 C 4.773438 -49.117188 7.871094 -50.421875 11.460938 -50.421875 L 34.378906 -50.421875 C 37.964844 -50.421875 41.0625 -49.117188 43.667969 -46.511719 C 46.277344 -43.90625 47.578125 -40.808594 47.578125 -37.21875 Z M 38.410156 -25.761719 L 38.410156 -37.21875 C 38.410156 -38.277344 38.003906 -39.210938 37.1875 -40.027344 C 36.371094 -40.84375 35.433594 -41.253906 34.378906 -41.253906 L 11.460938 -41.253906 C 10.402344 -41.253906 9.464844 -40.84375 8.648438 -40.027344 C 7.832031 -39.210938 7.425781 -38.277344 7.425781 -37.21875 L 7.425781 -8.617188 C 7.425781 -7.5625 7.832031 -6.625 8.648438 -5.808594 C 9.464844 -4.992188 10.402344 -4.582031 11.460938 -4.582031 L 40.152344 -4.582031 L 40.152344 0 L 35.570312 0 L 35.570312 -11.460938 L 40.152344 -11.460938 L 40.152344 -6.875 L 15.492188 -6.875 L 15.492188 -21.820312 L 34.378906 -21.820312 C 35.449219 -21.820312 36.398438 -22.222656 37.214844 -23.027344 C 38.011719 -23.808594 38.410156 -24.71875 38.410156 -25.761719 Z M 38.410156 -25.761719 "/></g></g><g style="fill:#ffffff;fill-opacity:1;"><g transform="translate(284.448892, 77.347465)"><path style="stroke:none" d="M 37.21875 -29.792969 L 20.078125 -29.792969 L 20.078125 -34.378906 L 24.660156 -34.378906 L 24.660156 4.582031 L -1.742188 4.582031 L -1.742188 -37.21875 C -1.742188 -40.808594 -0.4375 -43.90625 2.167969 -46.511719 C 4.773438 -49.117188 7.871094 -50.421875 11.460938 -50.421875 L 41.804688 -50.421875 L 41.804688 -29.792969 Z M 37.21875 -38.960938 L 37.21875 -34.378906 L 32.636719 -34.378906 L 32.636719 -45.835938 L 37.21875 -45.835938 L 37.21875 -41.253906 L 11.460938 -41.253906 C 10.402344 -41.253906 9.464844 -40.84375 8.648438 -40.027344 C 7.832031 -39.210938 7.425781 -38.277344 7.425781 -37.21875 L 7.425781 0 L 2.84375 0 L 2.84375 -4.582031 L 20.078125 -4.582031 L 20.078125 0 L 15.492188 0 L 15.492188 -38.960938 Z M 37.21875 -38.960938 "/></g></g><g style="fill:#ffffff;fill-opacity:1;"><g transform="translate(322.766274, 77.347465)"><path style="stroke:none" d="M 20.078125 -11.460938 L 20.078125 -17.234375 L 24.660156 -17.234375 L 24.660156 -12.652344 L 18.886719 -12.652344 L 18.886719 -17.234375 L 23.46875 -17.234375 L 23.46875 -11.460938 L 18.886719 -11.460938 L 18.886719 -16.042969 L 24.660156 -16.042969 L 24.660156 -11.460938 Z M 29.242188 -6.875 L 14.300781 -6.875 L 14.300781 -21.820312 L 29.242188 -21.820312 Z M 41.804688 4.582031 L 10.265625 4.582031 C 6.664062 4.582031 3.570312 3.269531 0.992188 0.644531 C -1.5625 -1.957031 -2.84375 -5.046875 -2.84375 -8.617188 L -2.84375 -20.078125 C -2.84375 -23.664062 -1.554688 -26.746094 1.023438 -29.324219 C 3.597656 -31.898438 6.679688 -33.1875 10.265625 -33.1875 L 24.660156 -33.1875 L 24.660156 -28.601562 L 20.078125 -28.601562 L 20.078125 -34.378906 L 24.660156 -34.378906 L 24.660156 -29.792969 L 0 -29.792969 L 0 -50.421875 L 33.1875 -50.421875 C 36.773438 -50.421875 39.871094 -49.117188 42.476562 -46.511719 C 45.082031 -43.90625 46.386719 -40.808594 46.386719 -37.21875 L 46.386719 4.582031 Z M 41.804688 -4.582031 L 41.804688 0 L 37.21875 0 L 37.21875 -37.21875 C 37.21875 -38.277344 36.8125 -39.210938 35.996094 -40.027344 C 35.179688 -40.84375 34.242188 -41.253906 33.1875 -41.253906 L 4.582031 -41.253906 L 4.582031 -45.835938 L 9.167969 -45.835938 L 9.167969 -34.378906 L 4.582031 -34.378906 L 4.582031 -38.960938 L 29.242188 -38.960938 L 29.242188 -24.019531 L 10.265625 -24.019531 C 9.210938 -24.019531 8.289062 -23.625 7.503906 -22.839844 C 6.71875 -22.054688 6.324219 -21.132812 6.324219 -20.078125 L 6.324219 -8.617188 C 6.324219 -7.542969 6.726562 -6.597656 7.53125 -5.777344 C 8.316406 -4.980469 9.226562 -4.582031 10.265625 -4.582031 Z M 41.804688 -4.582031 "/></g></g><g style="fill:#000000;fill-opacity:1;"><g transform="translate(-1.923045, 77.347465)"><path style="stroke:none" d="M 65.90625 0 L 48.671875 0 L 48.671875 -21.8125 L 38.6875 0 L 30.15625 0 L 20.078125 -21.8125 L 20.078125 0 L 2.84375 0 L 2.84375 -63.0625 L 20.078125 -63.0625 L 34.375 -32 L 48.671875 -63.0625 L 65.90625 -63.0625 Z M 65.90625 0 "/></g></g><g style="fill:#000000;fill-opacity:1;"><g transform="translate(66.828219, 77.347465)"><path style="stroke:none" d="M 25.765625 -11.453125 L 25.765625 -34.375 L 20.078125 -34.375 L 20.078125 -11.453125 Z M 43 -37.21875 L 43 -8.609375 C 43 -6.296875 42.140625 -4.28125 40.421875 -2.5625 C 38.710938 -0.851562 36.695312 0 34.375 0 L 11.453125 0 C 9.128906 0 7.113281 -0.851562 5.40625 -2.5625 C 3.695312 -4.28125 2.84375 -6.296875 2.84375 -8.609375 L 2.84375 -37.21875 C 2.84375 -39.539062 3.695312 -41.554688 5.40625 -43.265625 C 7.113281 -44.984375 9.128906 -45.84375 11.453125 -45.84375 L 34.375 -45.84375 C 36.695312 -45.84375 38.710938 -44.984375 40.421875 -43.265625 C 42.140625 -41.554688 43 -39.539062 43 -37.21875 Z M 43 -37.21875 "/></g></g><g style="fill:#000000;fill-opacity:1;"><g transform="translate(112.662399, 77.347465)"><path style="stroke:none" d="M 43 -37.21875 L 43 0 L 25.765625 0 L 25.765625 -34.375 L 20.078125 -34.375 L 20.078125 0 L 2.84375 0 L 2.84375 -45.84375 L 34.375 -45.84375 C 36.695312 -45.84375 38.710938 -44.984375 40.421875 -43.265625 C 42.140625 -41.554688 43 -39.539062 43 -37.21875 Z M 43 -37.21875 "/></g></g><g style="fill:#000000;fill-opacity:1;"><g transform="translate(158.496579, 77.347465)"><path style="stroke:none" d="M 37.21875 -8.609375 C 37.21875 -6.296875 36.359375 -4.28125 34.640625 -2.5625 C 32.929688 -0.851562 30.921875 0 28.609375 0 L 2.84375 0 L 2.84375 -11.453125 L 20.078125 -11.453125 L 20.078125 -17.234375 L 11.453125 -17.234375 C 9.128906 -17.234375 7.113281 -18.070312 5.40625 -19.75 C 3.695312 -21.4375 2.84375 -23.441406 2.84375 -25.765625 L 2.84375 -37.21875 C 2.84375 -39.539062 3.695312 -41.554688 5.40625 -43.265625 C 7.113281 -44.984375 9.128906 -45.84375 11.453125 -45.84375 L 34.921875 -45.84375 L 34.921875 -34.375 L 20.078125 -34.375 L 20.078125 -28.609375 L 28.609375 -28.609375 C 30.921875 -28.609375 32.929688 -27.765625 34.640625 -26.078125 C 36.359375 -24.398438 37.21875 -22.398438 37.21875 -20.078125 Z M 37.21875 -8.609375 "/></g></g><g style="fill:#000000;fill-opacity:1;"><g transform="translate(198.555639, 77.347465)"><path style="stroke:none" d="M 37.21875 0 L 17.234375 0 C 14.910156 0 12.890625 -0.851562 11.171875 -2.5625 C 9.460938 -4.28125 8.609375 -6.296875 8.609375 -8.609375 L 8.609375 -34.375 L 2.84375 -34.375 L 2.84375 -45.84375 L 8.609375 -45.84375 L 8.609375 -63.0625 L 25.765625 -63.0625 L 25.765625 -45.84375 L 37.21875 -45.84375 L 37.21875 -34.375 L 25.765625 -34.375 L 25.765625 -11.453125 L 37.21875 -11.453125 Z M 37.21875 0 "/></g></g><g style="fill:#000000;fill-opacity:1;"><g transform="translate(238.614723, 77.347465)"><path style="stroke:none" d="M 25.765625 -28.609375 L 25.765625 -34.375 L 20.078125 -34.375 L 20.078125 -28.609375 Z M 43 -25.765625 C 43 -23.441406 42.140625 -21.4375 40.421875 -19.75 C 38.710938 -18.070312 36.695312 -17.234375 34.375 -17.234375 L 20.078125 -17.234375 L 20.078125 -11.453125 L 40.15625 -11.453125 L 40.15625 0 L 11.453125 0 C 9.128906 0 7.113281 -0.851562 5.40625 -2.5625 C 3.695312 -4.28125 2.84375 -6.296875 2.84375 -8.609375 L 2.84375 -37.21875 C 2.84375 -39.539062 3.695312 -41.554688 5.40625 -43.265625 C 7.113281 -44.984375 9.128906 -45.84375 11.453125 -45.84375 L 34.375 -45.84375 C 36.695312 -45.84375 38.710938 -44.984375 40.421875 -43.265625 C 42.140625 -41.554688 43 -39.539062 43 -37.21875 Z M 43 -25.765625 "/></g></g><g style="fill:#000000;fill-opacity:1;"><g transform="translate(284.448892, 77.347465)"><path style="stroke:none" d="M 37.21875 -34.375 L 20.078125 -34.375 L 20.078125 0 L 2.84375 0 L 2.84375 -37.21875 C 2.84375 -39.539062 3.695312 -41.554688 5.40625 -43.265625 C 7.113281 -44.984375 9.128906 -45.84375 11.453125 -45.84375 L 37.21875 -45.84375 Z M 37.21875 -34.375 "/></g></g><g style="fill:#000000;fill-opacity:1;"><g transform="translate(322.766274, 77.347465)"><path style="stroke:none" d="M 24.65625 -11.453125 L 24.65625 -17.234375 L 18.890625 -17.234375 L 18.890625 -11.453125 Z M 41.796875 0 L 10.265625 0 C 7.941406 0 5.9375 -0.851562 4.25 -2.5625 C 2.570312 -4.28125 1.734375 -6.296875 1.734375 -8.609375 L 1.734375 -20.078125 C 1.734375 -22.398438 2.570312 -24.398438 4.25 -26.078125 C 5.9375 -27.765625 7.941406 -28.609375 10.265625 -28.609375 L 24.65625 -28.609375 L 24.65625 -34.375 L 4.578125 -34.375 L 4.578125 -45.84375 L 33.1875 -45.84375 C 35.507812 -45.84375 37.523438 -44.984375 39.234375 -43.265625 C 40.941406 -41.554688 41.796875 -39.539062 41.796875 -37.21875 Z M 41.796875 0 "/></g></g></g></svg>